<svg width="25" height="24" viewBox="0 0 25 24" fill="none" xmlns="http://www.w3.org/2000/svg">
<mask id="mask0_46_203" style="mask-type:alpha" maskUnits="userSpaceOnUse" x="0" y="0" width="25" height="24">
<rect x="0.112305" width="24" height="24" fill="#D9D9D9"/>
</mask>
<g mask="url(#mask0_46_203)">
<path d="M12.1123 20.9999L10.6623 19.6999C8.97897 18.1832 7.5873 16.8749 6.4873 15.7749C5.3873 14.6749 4.5123 13.6874 3.8623 12.8124C3.2123 11.9374 2.75814 11.1332 2.4998 10.3999C2.24147 9.66657 2.1123 8.91657 2.1123 8.1499C2.1123 6.58324 2.6373 5.2749 3.6873 4.2249C4.7373 3.1749 6.04564 2.6499 7.6123 2.6499C8.47897 2.6499 9.30397 2.83324 10.0873 3.1999C10.8706 3.56657 11.5456 4.08324 12.1123 4.7499C12.679 4.08324 13.354 3.56657 14.1373 3.1999C14.9206 2.83324 15.7456 2.6499 16.6123 2.6499C18.179 2.6499 19.4873 3.1749 20.5373 4.2249C21.5873 5.2749 22.1123 6.58324 22.1123 8.1499C22.1123 8.91657 21.9831 9.66657 21.7248 10.3999C21.4665 11.1332 21.0123 11.9374 20.3623 12.8124C19.7123 13.6874 18.8373 14.6749 17.7373 15.7749C16.6373 16.8749 15.2456 18.1832 13.5623 19.6999L12.1123 20.9999ZM12.1123 18.2999C13.7123 16.8666 15.029 15.6374 16.0623 14.6124C17.0956 13.5874 17.9123 12.6957 18.5123 11.9374C19.1123 11.1791 19.529 10.5041 19.7623 9.9124C19.9956 9.32074 20.1123 8.73324 20.1123 8.1499C20.1123 7.1499 19.779 6.31657 19.1123 5.6499C18.4456 4.98324 17.6123 4.6499 16.6123 4.6499C15.829 4.6499 15.104 4.87074 14.4373 5.3124C13.7706 5.75407 13.3123 6.31657 13.0623 6.9999H11.1623C10.9123 6.31657 10.454 5.75407 9.7873 5.3124C9.12064 4.87074 8.39564 4.6499 7.6123 4.6499C6.6123 4.6499 5.77897 4.98324 5.1123 5.6499C4.44564 6.31657 4.1123 7.1499 4.1123 8.1499C4.1123 8.73324 4.22897 9.32074 4.4623 9.9124C4.69564 10.5041 5.1123 11.1791 5.7123 11.9374C6.3123 12.6957 7.12897 13.5874 8.1623 14.6124C9.19564 15.6374 10.5123 16.8666 12.1123 18.2999Z" fill="#1C1B1F"/>
</g>
</svg>
